<svg width="24" height="24" viewBox="0 0 24 24" fill="none" xmlns="http://www.w3.org/2000/svg">
<g id="Play">
<path id="Vector" d="M21.9834 10.4128L8.47594 2.15063C8.19267 1.97794 7.86865 1.8835 7.53696 1.87695C7.20526 1.8704 6.87777 1.95198 6.58791 2.11336C6.29804 2.27473 6.05618 2.51013 5.88702 2.79551C5.71785 3.0809 5.62744 3.40607 5.625 3.73781V20.2622C5.62744 20.5939 5.71785 20.9191 5.88702 21.2045C6.05618 21.4899 6.29804 21.7253 6.58791 21.8866C6.87777 22.048 7.20526 22.1296 7.53696 22.1231C7.86865 22.1165 8.19267 22.0221 8.47594 21.8494L21.9834 13.5872C22.2558 13.4214 22.4809 13.1883 22.6371 12.9103C22.7934 12.6324 22.8754 12.3189 22.8754 12C22.8754 11.6811 22.7934 11.3676 22.6371 11.0897C22.4809 10.8117 22.2558 10.5786 21.9834 10.4128ZM7.875 19.5797V4.42031L20.265 12L7.875 19.5797Z" fill="#0B0A0A"/>
</g>
</svg>
